<svg width="43" height="52" viewBox="0 0 43 52" fill="none" xmlns="http://www.w3.org/2000/svg">
<path d="M23.5555 36.5822C25.7262 34.3535 25.6673 30.7984 23.4238 28.6419C21.5731 26.8628 18.8241 26.6158 16.6961 27.8265L10.5469 22.2018C11.5446 20.5151 11.5675 18.4431 10.6487 16.7327L16.3957 10.5315C18.5698 11.7021 21.3364 11.3721 23.1401 9.52025C25.3108 7.29146 25.2519 3.73645 23.0085 1.57989C20.765 -0.576673 17.1866 -0.518121 15.0159 1.71062C13.2251 3.54928 12.9764 6.28035 14.1951 8.39445L8.51478 14.5236C7.28471 13.8139 5.85241 13.5893 4.50029 13.8762C3.42825 14.0969 2.40902 14.6272 1.59028 15.4678C-0.580472 17.6965 -0.521538 21.2516 1.72192 23.4081C3.12809 24.7598 5.05833 25.2399 6.83801 24.8622C7.34972 24.7568 7.83934 24.5573 8.31077 24.3104L14.5449 30.0127C13.3666 32.1726 13.6988 34.9211 15.5629 36.713C17.8063 38.8696 21.3847 38.811 23.5555 36.5822Z" fill="#95C01F" fill-opacity="0.3"/>
<path d="M41.2781 28.6403C40.9853 28.3589 40.6682 28.1196 40.3361 27.9135C38.6104 26.808 36.4294 26.7548 34.6426 27.6954L28.4551 22.0357C29.6334 19.8759 29.3012 17.1273 27.4371 15.3354C25.1937 13.1788 21.6153 13.2373 19.4445 15.4661C17.2738 17.6949 17.3327 21.2499 19.5762 23.4065C21.4269 25.1856 24.1759 25.4326 26.3038 24.2219L32.4119 29.8089C31.3931 31.5397 31.397 33.6743 32.3919 35.4061L26.7084 41.5387C24.515 40.2772 21.6661 40.5885 19.8241 42.4797C17.6534 44.7085 17.7123 48.2635 19.9558 50.4201C22.1992 52.5767 25.7776 52.5181 27.9484 50.2893C29.7002 48.4906 29.9743 45.8384 28.8455 43.7443L34.5848 37.5515C36.7703 38.7741 39.584 38.4552 41.4097 36.5807C43.5805 34.3519 43.5215 30.7969 41.2781 28.6403Z" fill="#95C01F" fill-opacity="0.3"/>
<path d="M6.64066 9.55207C7.99414 9.49164 9.04209 8.35274 8.98127 7.00811C8.92051 5.66354 7.77411 4.62243 6.42064 4.6828C5.06717 4.74316 4.01927 5.88213 4.08003 7.22669C4.14079 8.57132 5.28725 9.61237 6.64066 9.55207Z" fill="#95C01F" fill-opacity="0.3"/>
<path d="M36.0002 22.319C37.3536 22.2586 38.4015 21.1197 38.3408 19.7751C38.2801 18.4304 37.1335 17.3894 35.7801 17.4498C34.4267 17.5101 33.3788 18.649 33.4395 19.9937C33.5003 21.3383 34.6467 22.3794 36.0002 22.319Z" fill="#95C01F" fill-opacity="0.3"/>
<path d="M36.1507 42.5114C34.7973 42.5718 33.7494 43.7107 33.8101 45.0553C33.8709 46.3999 35.0174 47.441 36.3708 47.3806C37.7242 47.3203 38.7721 46.1813 38.7114 44.8367C38.6507 43.4921 37.5042 42.451 36.1507 42.5114Z" fill="#95C01F" fill-opacity="0.3"/>
<path d="M6.95696 29.5919C5.60348 29.6522 4.55559 30.7912 4.61634 32.1357C4.67711 33.4804 5.82357 34.5215 7.17698 34.4611C8.53045 34.4008 9.57835 33.2618 9.51759 31.9172C9.45683 30.5726 8.31043 29.5315 6.95696 29.5919Z" fill="#95C01F" fill-opacity="0.3"/>
</svg>
